999
"DXF R12 Output" (www.mydxf.blogspot.com)
 0 
SECTION
 2 
HEADER
 9 
$ACADVER
 1 
AC1009
 9 
$EXTMIN
 10 
 0 
 20 
 0 
 9 
$EXTMAX
 10 
 8.5 
 20 
 11 
 0 
ENDSEC
 0 
SECTION
 2 
ENTITIES
0
LINE
8
Layer 1
10
2.297300
20
0.215000
11
1.813770
21
0.870000
0
LINE
8
Layer 1
10
1.813770
20
0.870000
11
1.576590
21
1.545330
0
LINE
8
Layer 1
10
1.576590
20
1.545330
11
1.577219
21
2.756040
0
LINE
8
Layer 1
10
1.577219
20
2.756040
11
2.031621
21
4.273900
0
LINE
8
Layer 1
10
2.031621
20
4.273900
11
2.685841
21
5.568990
0
LINE
8
Layer 1
10
2.685841
20
5.568990
11
3.100681
21
6.378990
0
LINE
8
Layer 1
10
3.100681
20
6.378990
11
3.345827
21
6.932016
0
LINE
8
Layer 1
10
3.345827
20
6.932016
11
3.511097
21
7.372016
0
LINE
8
Layer 1
10
3.511097
20
7.372016
11
3.594810
21
7.900000
0
LINE
8
Layer 1
10
3.594810
20
7.900000
11
3.489743
21
8.843477
0
LINE
8
Layer 1
10
3.489743
20
8.843477
11
3.176940
21
9.642310
0
LINE
8
Layer 1
10
3.176940
20
9.642310
11
2.180000
21
10.543900
0
LINE
8
Layer 1
10
2.180000
20
10.543900
11
0.846877
21
11.812900
0
LINE
8
Layer 1
10
0.846877
20
11.812900
11
0.110831
21
13.147000
0
LINE
8
Layer 1
10
0.110831
20
13.147000
11
0.000000
21
13.423200
0
LINE
8
Layer 1
10
0.000000
20
13.423200
11
0.000000
21
19.745300
0
LINE
8
Layer 1
10
0.000000
20
19.745300
11
0.000000
21
26.067400
0
LINE
8
Layer 1
10
0.000000
20
26.067400
11
0.158844
21
26.388684
0
LINE
8
Layer 1
10
0.158844
20
26.388684
11
0.847172
21
27.502360
0
LINE
8
Layer 1
10
0.847172
20
27.502360
11
1.897944
21
28.556084
0
LINE
8
Layer 1
10
1.897944
20
28.556084
11
3.619234
21
30.191794
0
LINE
8
Layer 1
10
3.619234
20
30.191794
11
4.510783
21
31.669974
0
LINE
8
Layer 1
10
4.510783
20
31.669974
11
5.195785
21
33.196450
0
LINE
8
Layer 1
10
5.195785
20
33.196450
11
5.488891
21
34.559974
0
LINE
8
Layer 1
10
5.488891
20
34.559974
11
5.574645
21
36.439974
0
LINE
8
Layer 1
10
5.574645
20
36.439974
11
5.427280
21
38.190000
0
LINE
8
Layer 1
10
5.427280
20
38.190000
11
5.008486
21
39.634475
0
LINE
8
Layer 1
10
5.008486
20
39.634475
11
4.369830
21
40.458400
0
LINE
8
Layer 1
10
4.369830
20
40.458400
11
3.849830
21
40.813700
0
LINE
8
Layer 1
10
3.849830
20
40.813700
11
1.952620
21
42.240000
0
LINE
8
Layer 1
10
1.952620
20
42.240000
11
1.307420
21
42.950000
0
LINE
8
Layer 1
10
1.307420
20
42.950000
11
0.684485
21
43.919000
0
LINE
8
Layer 1
10
0.684485
20
43.919000
11
0.186784
21
45.054200
0
LINE
8
Layer 1
10
0.186784
20
45.054200
11
0.000181
21
46.181200
0
LINE
8
Layer 1
10
0.000181
20
46.181200
11
0.040692
21
46.767800
0
LINE
8
Layer 1
10
0.040692
20
46.767800
11
0.525558
21
47.770837
0
LINE
8
Layer 1
10
0.525558
20
47.770837
11
1.340000
21
48.622900
0
LINE
8
Layer 1
10
1.340000
20
48.622900
11
2.327566
21
49.138075
0
LINE
8
Layer 1
10
2.327566
20
49.138075
11
3.590000
21
49.463200
0
LINE
8
Layer 1
10
3.590000
20
49.463200
11
4.300000
21
49.507100
0
LINE
8
Layer 1
10
4.300000
20
49.507100
11
5.410000
21
49.409907
0
LINE
8
Layer 1
10
5.410000
20
49.409907
11
6.304062
21
49.121301
0
LINE
8
Layer 1
10
6.304062
20
49.121301
11
6.924532
21
48.627263
0
LINE
8
Layer 1
10
6.924532
20
48.627263
11
7.332794
21
47.852070
0
LINE
8
Layer 1
10
7.332794
20
47.852070
11
7.590230
21
46.720000
0
LINE
8
Layer 1
10
7.590230
20
46.720000
11
7.953690
21
45.280400
0
LINE
8
Layer 1
10
7.953690
20
45.280400
11
8.368770
21
44.483500
0
LINE
8
Layer 1
10
8.368770
20
44.483500
11
8.688940
21
44.249200
0
LINE
8
Layer 1
10
8.688940
20
44.249200
11
9.350000
21
44.078500
0
LINE
8
Layer 1
10
9.350000
20
44.078500
11
10.387725
21
44.154387
0
LINE
8
Layer 1
10
10.387725
20
44.154387
11
11.376700
21
44.598600
0
LINE
8
Layer 1
10
11.376700
20
44.598600
11
12.456275
21
45.439437
0
LINE
8
Layer 1
10
12.456275
20
45.439437
11
13.294800
21
46.361500
0
LINE
8
Layer 1
10
13.294800
20
46.361500
11
13.561200
21
46.710000
0
LINE
8
Layer 1
10
13.561200
20
46.710000
11
13.963348
21
47.376575
0
LINE
8
Layer 1
10
13.963348
20
47.376575
11
14.280002
21
47.956746
0
LINE
8
Layer 1
10
14.280002
20
47.956746
11
14.716029
21
48.429439
0
LINE
8
Layer 1
10
14.716029
20
48.429439
11
15.315963
21
48.831909
0
LINE
8
Layer 1
10
15.315963
20
48.831909
11
16.737212
21
49.280546
0
LINE
8
Layer 1
10
16.737212
20
49.280546
11
17.775579
21
49.219382
0
LINE
8
Layer 1
10
17.775579
20
49.219382
11
18.765042
21
48.906748
0
LINE
8
Layer 1
10
18.765042
20
48.906748
11
19.397578
21
48.483544
0
LINE
8
Layer 1
10
19.397578
20
48.483544
11
19.906812
21
47.944574
0
LINE
8
Layer 1
10
19.906812
20
47.944574
11
20.461331
21
46.794924
0
LINE
8
Layer 1
10
20.461331
20
46.794924
11
20.657000
21
46.310000
0
LINE
8
Layer 1
10
20.657000
20
46.310000
11
21.041915
21
45.894140
0
LINE
8
Layer 1
10
21.041915
20
45.894140
11
21.628812
21
45.645018
0
LINE
8
Layer 1
10
21.628812
20
45.645018
11
22.990022
21
45.635928
0
LINE
8
Layer 1
10
22.990022
20
45.635928
11
23.891165
21
45.758229
0
LINE
8
Layer 1
10
23.891165
20
45.758229
11
24.690022
21
46.109386
0
LINE
8
Layer 1
10
24.690022
20
46.109386
11
26.170022
21
46.720889
0
LINE
8
Layer 1
10
26.170022
20
46.720889
11
27.570022
21
46.887294
0
LINE
8
Layer 1
10
27.570022
20
46.887294
11
28.900022
21
46.767666
0
LINE
8
Layer 1
10
28.900022
20
46.767666
11
29.890022
21
46.181337
0
LINE
8
Layer 1
10
29.890022
20
46.181337
11
30.645158
21
45.759391
0
LINE
8
Layer 1
10
30.645158
20
45.759391
11
31.278050
21
45.809726
0
LINE
8
Layer 1
10
31.278050
20
45.809726
11
31.881868
21
46.041185
0
LINE
8
Layer 1
10
31.881868
20
46.041185
11
32.368964
21
46.737028
0
LINE
8
Layer 1
10
32.368964
20
46.737028
11
32.654900
21
47.342800
0
LINE
8
Layer 1
10
32.654900
20
47.342800
11
33.122000
21
47.968900
0
LINE
8
Layer 1
10
33.122000
20
47.968900
11
33.632450
21
48.380925
0
LINE
8
Layer 1
10
33.632450
20
48.380925
11
34.310000
21
48.676700
0
LINE
8
Layer 1
10
34.310000
20
48.676700
11
35.279495
21
48.907620
0
LINE
8
Layer 1
10
35.279495
20
48.907620
11
36.364310
21
48.979964
0
LINE
8
Layer 1
10
36.364310
20
48.979964
11
37.740000
21
48.749432
0
LINE
8
Layer 1
10
37.740000
20
48.749432
11
38.540000
21
48.369138
0
LINE
8
Layer 1
10
38.540000
20
48.369138
11
39.156076
21
47.773434
0
LINE
8
Layer 1
10
39.156076
20
47.773434
11
39.572085
21
46.848948
0
LINE
8
Layer 1
10
39.572085
20
46.848948
11
39.734112
21
45.638374
0
LINE
8
Layer 1
10
39.734112
20
45.638374
11
39.583295
21
44.253292
0
LINE
8
Layer 1
10
39.583295
20
44.253292
11
38.956496
21
42.918354
0
LINE
8
Layer 1
10
38.956496
20
42.918354
11
38.335300
21
41.840000
0
LINE
8
Layer 1
10
38.335300
20
41.840000
11
37.492900
21
40.496800
0
LINE
8
Layer 1
10
37.492900
20
40.496800
11
36.661266
21
39.167609
0
LINE
8
Layer 1
10
36.661266
20
39.167609
11
36.042650
21
37.851600
0
LINE
8
Layer 1
10
36.042650
20
37.851600
11
35.623459
21
36.513991
0
LINE
8
Layer 1
10
35.623459
20
36.513991
11
35.390100
21
35.120000
0
LINE
8
Layer 1
10
35.390100
20
35.120000
11
35.369630
21
32.420000
0
LINE
8
Layer 1
10
35.369630
20
32.420000
11
35.733944
21
30.621614
0
LINE
8
Layer 1
10
35.733944
20
30.621614
11
36.362568
21
28.773270
0
LINE
8
Layer 1
10
36.362568
20
28.773270
11
38.075478
21
25.640000
0
LINE
8
Layer 1
10
38.075478
20
25.640000
11
38.593246
21
24.924778
0
LINE
8
Layer 1
10
38.593246
20
24.924778
11
39.421296
21
23.733839
0
LINE
8
Layer 1
10
39.421296
20
23.733839
11
39.888966
21
22.831778
0
LINE
8
Layer 1
10
39.888966
20
22.831778
11
40.000200
21
22.573600
0
LINE
8
Layer 1
10
40.000200
20
22.573600
11
39.995100
21
16.721800
0
LINE
8
Layer 1
10
39.995100
20
16.721800
11
39.990000
21
10.870000
0
LINE
8
Layer 1
10
39.990000
20
10.870000
11
39.823700
21
10.563600
0
LINE
8
Layer 1
10
39.823700
20
10.563600
11
39.231770
21
9.579976
0
LINE
8
Layer 1
10
39.231770
20
9.579976
11
38.734590
21
8.671216
0
LINE
8
Layer 1
10
38.734590
20
8.671216
11
38.427575
21
7.778451
0
LINE
8
Layer 1
10
38.427575
20
7.778451
11
38.312153
21
6.907654
0
LINE
8
Layer 1
10
38.312153
20
6.907654
11
38.389752
21
6.064796
0
LINE
8
Layer 1
10
38.389752
20
6.064796
11
38.850392
21
4.409976
0
LINE
8
Layer 1
10
38.850392
20
4.409976
11
39.313849
21
2.746025
0
LINE
8
Layer 1
10
39.313849
20
2.746025
11
39.444646
21
1.579976
0
LINE
8
Layer 1
10
39.444646
20
1.579976
11
39.175372
21
0.289976
0
LINE
8
Layer 1
10
39.175372
20
0.289976
11
39.067900
21
0.010000
0
LINE
8
Layer 1
10
39.067900
20
0.010000
11
34.149000
21
0.005500
0
LINE
8
Layer 1
10
34.149000
20
0.005500
11
29.230000
21
0.000916
0
LINE
8
Layer 1
10
29.230000
20
0.000916
11
29.070000
21
0.141400
0
LINE
8
Layer 1
10
29.070000
20
0.141400
11
28.221868
21
0.624986
0
LINE
8
Layer 1
10
28.221868
20
0.624986
11
27.730000
21
0.668066
0
LINE
8
Layer 1
10
27.730000
20
0.668066
11
27.175440
21
0.615186
0
LINE
8
Layer 1
10
27.175440
20
0.615186
11
26.045960
21
0.121832
0
LINE
8
Layer 1
10
26.045960
20
0.121832
11
25.863800
21
0.000000
0
LINE
8
Layer 1
10
25.863800
20
0.000000
11
20.159700
21
0.000000
0
LINE
8
Layer 1
10
20.159700
20
0.000000
11
14.455700
21
0.000000
0
LINE
8
Layer 1
10
14.455700
20
0.000000
11
14.332800
21
0.096830
0
LINE
8
Layer 1
10
14.332800
20
0.096830
11
13.220000
21
0.707890
0
LINE
8
Layer 1
10
13.220000
20
0.707890
11
12.451475
21
0.783440
0
LINE
8
Layer 1
10
12.451475
20
0.783440
11
11.759300
21
0.394794
0
LINE
8
Layer 1
10
11.759300
20
0.394794
11
11.490000
21
0.124160
0
LINE
8
Layer 1
10
11.490000
20
0.124160
11
11.390000
21
0.002098
0
LINE
8
Layer 1
10
11.390000
20
0.002098
11
6.948850
21
0.001098
0
LINE
8
Layer 1
10
6.948850
20
0.001098
11
2.507700
21
0.000098
0
LINE
8
Layer 1
10
2.507700
20
0.000098
11
2.297305
21
0.215098
0
LINE
8
Layer 1
10
2.297305
20
0.215098
11
2.297300
21
0.215000
 0 
ENDSEC
 0 
EOF